<?xml version="1.0" encoding="UTF-8"?>
<!DOCTYPE svg PUBLIC "-//W3C//DTD SVG 1.1//EN" "http://www.w3.org/Graphics/SVG/1.1/DTD/svg11.dtd">
<svg xmlns="http://www.w3.org/2000/svg" version="1.1" width="500px" height="500px" style="shape-rendering:geometricPrecision; text-rendering:geometricPrecision; image-rendering:optimizeQuality; fill-rule:evenodd; clip-rule:evenodd" xmlns:xlink="http://www.w3.org/1999/xlink">
<g><path style="opacity:1" fill="#071824" d="M 397.5,229.5 C 397.19,228.262 396.69,228.262 396,229.5C 395.88,226.325 394.38,224.825 391.5,225C 392.328,225.915 393.328,226.581 394.5,227C 393.929,228.205 393.262,229.372 392.5,230.5C 390.929,229.691 389.262,229.357 387.5,229.5C 387.302,236.364 388.802,242.698 392,248.5C 392.5,248 393,247.5 393.5,247C 392.027,246.29 391.36,245.124 391.5,243.5C 392.5,243.5 393.5,243.5 394.5,243.5C 394.277,247.502 394.277,251.335 394.5,255C 393.728,256.221 392.728,257.221 391.5,258C 392.28,259.073 392.113,260.24 391,261.5C 390,261.5 389,261.5 388,261.5C 387.502,264.482 387.335,267.482 387.5,270.5C 385.54,271.138 383.707,271.138 382,270.5C 381.613,266.752 382.113,263.085 383.5,259.5C 383.779,256.994 382.946,254.994 381,253.5C 378.926,256.07 377.426,259.403 376.5,263.5C 375.866,261.433 374.866,259.6 373.5,258C 375.505,255.771 376.672,253.271 377,250.5C 376.586,250.957 376.086,251.291 375.5,251.5C 374.571,250.311 374.238,248.978 374.5,247.5C 374.5,246.5 374.5,245.5 374.5,244.5C 375.302,243.048 375.802,241.382 376,239.5C 376.831,200.664 376.665,161.998 375.5,123.5C 334.419,110.736 292.585,98.0697 250,85.5C 208.353,98.2066 166.52,110.54 124.5,122.5C 124.529,164.248 124.529,205.914 124.5,247.5C 126.13,250.276 126.797,253.276 126.5,256.5C 126.318,258.591 126.652,260.591 127.5,262.5C 123.853,263.743 121.353,262.41 120,258.5C 120.226,253.794 119.059,252.961 116.5,256C 118.189,259.838 117.356,263.004 114,265.5C 111.073,265.635 109.073,263.968 108,260.5C 107.351,263.937 106.851,264.104 106.5,261C 106.755,259.674 107.422,258.674 108.5,258C 106.699,257.683 106.366,257.016 107.5,256C 106.552,255.517 105.552,255.351 104.5,255.5C 104.383,253.516 105.05,251.85 106.5,250.5C 104.962,247.852 103.628,245.185 102.5,242.5C 101.754,238.148 101.087,233.648 100.5,229C 101.804,191.165 101.804,153.165 100.5,115C 101.477,107.356 105.81,103.023 113.5,102C 159.062,88.4535 204.395,74.9535 249.5,61.5C 296.987,75.1364 344.654,89.303 392.5,104C 395.25,106.67 397.083,109.836 398,113.5C 398.167,121 398.333,128.5 398.5,136C 398.824,167.402 398.491,198.569 397.5,229.5 Z"/></g>
<g><path style="opacity:1" fill="#83cea5" d="M 146.5,137.5 C 146.013,138.473 145.513,139.473 145,140.5C 144.5,149.494 144.334,158.494 144.5,167.5C 143.342,158.009 143.175,148.342 144,138.5C 144.671,137.748 145.504,137.414 146.5,137.5 Z"/></g>
<g><path style="opacity:1" fill="#0b8d4a" d="M 299.5,170.5 C 299.389,169.883 299.056,169.383 298.5,169C 290.147,168.168 281.813,168.335 273.5,169.5C 273.167,170.5 272.5,171.167 271.5,171.5C 270.833,231.833 270.167,292.167 269.5,352.5C 268.268,353.145 266.935,353.311 265.5,353C 266.337,354.011 266.67,355.178 266.5,356.5C 261.349,360.264 255.849,363.597 250,366.5C 242.156,362.826 234.656,358.492 227.5,353.5C 227.336,331.002 227.336,308.335 227.5,285.5C 228.167,267.17 228.5,248.67 228.5,230C 228.5,211.154 227.833,192.654 226.5,174.5C 226.056,172.887 225.056,171.72 223.5,171C 217.509,170.501 211.509,170.334 205.5,170.5C 202.572,169.18 199.239,168.514 195.5,168.5C 182.84,167.572 170.174,167.405 157.5,168C 156.944,168.383 156.611,168.883 156.5,169.5C 152.358,168.96 148.358,168.294 144.5,167.5C 144.334,158.494 144.5,149.494 145,140.5C 145.513,139.473 146.013,138.473 146.5,137.5C 165.268,131.934 184.268,126.601 203.5,121.5C 202.685,122.837 201.518,123.837 200,124.5C 199.517,125.448 199.351,126.448 199.5,127.5C 200.873,127.343 202.207,127.51 203.5,128C 201.139,128.197 199.472,129.364 198.5,131.5C 197.887,130.02 197.554,128.687 197.5,127.5C 194.321,127.486 192.321,129.32 191.5,133C 194.045,135.501 193.545,136.001 190,134.5C 188.441,135.029 186.941,135.696 185.5,136.5C 185.425,141.428 184.758,146.428 183.5,151.5C 183.324,149.114 183.324,146.448 183.5,143.5C 179.849,143.162 178.183,144.828 178.5,148.5C 177.5,148.5 176.5,148.5 175.5,148.5C 175.5,145.833 175.5,143.167 175.5,140.5C 173.345,140.372 171.345,140.872 169.5,142C 170.451,142.718 170.617,143.551 170,144.5C 168.887,143.289 167.72,143.289 166.5,144.5C 165.396,143.369 165.729,142.535 167.5,142C 167,141.833 166.5,141.667 166,141.5C 163.453,143.177 160.62,143.844 157.5,143.5C 157.363,150.626 158.03,150.959 159.5,144.5C 158.949,146.755 159.615,148.922 161.5,151C 159.513,153.47 159.013,156.303 160,159.5C 160.914,157.336 162.081,155.336 163.5,153.5C 164.926,155.937 166.259,158.437 167.5,161C 164.417,161.895 161.417,162.895 158.5,164C 161.188,164.392 163.855,164.892 166.5,165.5C 174.053,164.401 180.886,164.401 187,165.5C 189.912,165.642 191.412,164.309 191.5,161.5C 188.594,161.262 186.76,161.928 186,163.5C 181.918,162.183 177.752,161.183 173.5,160.5C 174.853,159.476 175.52,158.143 175.5,156.5C 180.833,156.5 186.167,156.5 191.5,156.5C 191.5,157.5 191.5,158.5 191.5,159.5C 195.167,159.5 198.833,159.5 202.5,159.5C 202.5,158.5 202.5,157.5 202.5,156.5C 206.172,156.817 207.838,155.151 207.5,151.5C 210.711,151.988 213.544,151.321 216,149.5C 217.017,152.028 218.184,152.028 219.5,149.5C 220.816,152.028 221.983,152.028 223,149.5C 223.333,152.5 223.667,155.5 224,158.5C 224.862,156.913 225.529,155.246 226,153.5C 226.333,155.5 226.667,157.5 227,159.5C 230.019,159.028 233.519,159.028 237.5,159.5C 237.98,162.005 238.98,164.338 240.5,166.5C 239.985,168.225 239.318,169.892 238.5,171.5C 237.6,168.161 236.6,165.495 235.5,163.5C 233.143,163.337 230.81,163.503 228.5,164C 230.125,164.853 230.458,165.853 229.5,167C 235.013,166.848 237.346,169.514 236.5,175C 237,175.5 237.5,176 238,176.5C 246.415,175.517 254.915,175.183 263.5,175.5C 263.5,172.833 263.5,170.167 263.5,167.5C 259.867,167.557 259.7,166.557 263,164.5C 263.499,160.179 263.666,155.846 263.5,151.5C 262.448,151.649 261.448,151.483 260.5,151C 258.289,148.215 255.623,145.882 252.5,144C 248.848,143.501 245.182,143.335 241.5,143.5C 241.5,140.833 241.5,138.167 241.5,135.5C 243.5,135.5 245.5,135.5 247.5,135.5C 247.5,134.5 247.5,133.5 247.5,132.5C 251.936,132.058 256.269,132.058 260.5,132.5C 260.5,133.5 260.5,134.5 260.5,135.5C 262.527,135.338 264.527,135.505 266.5,136C 267.333,138.167 268.833,139.667 271,140.5C 271.499,146.491 271.666,152.491 271.5,158.5C 276.512,159.647 281.845,160.813 287.5,162C 285.377,162.815 283.377,163.815 281.5,165C 287.833,165.667 294.167,165.667 300.5,165C 297.063,164.351 296.896,163.851 300,163.5C 302.419,165.301 305.252,166.301 308.5,166.5C 312.194,165.768 315.861,164.935 319.5,164C 317.167,163.667 314.833,163.333 312.5,163C 312.833,162.667 313.167,162.333 313.5,162C 311.392,161.64 309.392,160.973 307.5,160C 310.146,159.503 312.813,159.336 315.5,159.5C 315.67,158.178 315.337,157.011 314.5,156C 312.687,156.046 311.021,155.88 309.5,155.5C 312.965,151.03 316.965,147.197 321.5,144C 319.655,142.872 317.655,142.372 315.5,142.5C 315.803,139.412 314.47,137.746 311.5,137.5C 311.234,141.079 309.901,141.413 307.5,138.5C 306.943,136.765 306.61,135.098 306.5,133.5C 304.149,132.287 302.316,132.953 301,135.5C 298.63,133.151 298.13,130.485 299.5,127.5C 301.214,128.609 301.881,127.942 301.5,125.5C 292.966,122.158 284.132,119.491 275,117.5C 272.991,118.172 271.158,119.172 269.5,120.5C 272.107,121.318 274.774,121.818 277.5,122C 275.75,123.319 273.75,123.819 271.5,123.5C 271.649,124.552 271.483,125.552 271,126.5C 268.619,125.565 266.119,125.232 263.5,125.5C 263.649,126.552 263.483,127.552 263,128.5C 260.817,126.624 258.317,125.291 255.5,124.5C 254.926,122.941 254.26,121.441 253.5,120C 254.5,119.667 255.5,119.333 256.5,119C 253.964,118.661 251.464,118.161 249,117.5C 247.7,118.707 246.2,119.374 244.5,119.5C 244.719,120.675 244.386,121.675 243.5,122.5C 242.02,117.598 238.686,115.765 233.5,117C 234.308,117.308 234.975,117.808 235.5,118.5C 234.753,118.736 233.92,119.07 233,119.5C 231.756,117.55 229.923,116.55 227.5,116.5C 219.862,118.381 212.195,120.048 204.5,121.5C 209.995,119.742 215.495,117.742 221,115.5C 221.333,115.833 221.667,116.167 222,116.5C 228.631,114.457 235.131,112.124 241.5,109.5C 243.977,110.334 246.144,109.667 248,107.5C 249.113,108.711 250.28,108.711 251.5,107.5C 253.62,109.609 255.954,110.276 258.5,109.5C 260.413,110.373 262.247,111.373 264,112.5C 264.333,112.167 264.667,111.833 265,111.5C 267.269,113.269 269.602,113.935 272,113.5C 274.269,115.269 276.602,115.935 279,115.5C 295.526,120.941 312.693,126.274 330.5,131.5C 331.086,131.291 331.586,130.957 332,130.5C 339.771,133.3 347.604,135.966 355.5,138.5C 356.824,148.363 356.824,158.197 355.5,168C 336.701,169.15 318.034,169.983 299.5,170.5 Z"/></g>
<g><path style="opacity:1" fill="#018e44" d="M 203.5,121.5 C 203.833,121.5 204.167,121.5 204.5,121.5C 212.195,120.048 219.862,118.381 227.5,116.5C 229.923,116.55 231.756,117.55 233,119.5C 233.92,119.07 234.753,118.736 235.5,118.5C 234.975,117.808 234.308,117.308 233.5,117C 238.686,115.765 242.02,117.598 243.5,122.5C 244.386,121.675 244.719,120.675 244.5,119.5C 246.2,119.374 247.7,118.707 249,117.5C 251.464,118.161 253.964,118.661 256.5,119C 255.5,119.333 254.5,119.667 253.5,120C 254.26,121.441 254.926,122.941 255.5,124.5C 258.317,125.291 260.817,126.624 263,128.5C 263.483,127.552 263.649,126.552 263.5,125.5C 266.119,125.232 268.619,125.565 271,126.5C 271.483,125.552 271.649,124.552 271.5,123.5C 273.75,123.819 275.75,123.319 277.5,122C 274.774,121.818 272.107,121.318 269.5,120.5C 271.158,119.172 272.991,118.172 275,117.5C 284.132,119.491 292.966,122.158 301.5,125.5C 301.881,127.942 301.214,128.609 299.5,127.5C 298.13,130.485 298.63,133.151 301,135.5C 302.316,132.953 304.149,132.287 306.5,133.5C 306.61,135.098 306.943,136.765 307.5,138.5C 309.901,141.413 311.234,141.079 311.5,137.5C 314.47,137.746 315.803,139.412 315.5,142.5C 317.655,142.372 319.655,142.872 321.5,144C 316.965,147.197 312.965,151.03 309.5,155.5C 311.021,155.88 312.687,156.046 314.5,156C 315.337,157.011 315.67,158.178 315.5,159.5C 312.813,159.336 310.146,159.503 307.5,160C 309.392,160.973 311.392,161.64 313.5,162C 313.167,162.333 312.833,162.667 312.5,163C 314.833,163.333 317.167,163.667 319.5,164C 315.861,164.935 312.194,165.768 308.5,166.5C 305.252,166.301 302.419,165.301 300,163.5C 296.896,163.851 297.063,164.351 300.5,165C 294.167,165.667 287.833,165.667 281.5,165C 283.377,163.815 285.377,162.815 287.5,162C 281.845,160.813 276.512,159.647 271.5,158.5C 271.666,152.491 271.499,146.491 271,140.5C 268.833,139.667 267.333,138.167 266.5,136C 264.527,135.505 262.527,135.338 260.5,135.5C 260.5,134.5 260.5,133.5 260.5,132.5C 256.269,132.058 251.936,132.058 247.5,132.5C 247.5,133.5 247.5,134.5 247.5,135.5C 245.5,135.5 243.5,135.5 241.5,135.5C 241.5,138.167 241.5,140.833 241.5,143.5C 245.182,143.335 248.848,143.501 252.5,144C 255.623,145.882 258.289,148.215 260.5,151C 261.448,151.483 262.448,151.649 263.5,151.5C 263.666,155.846 263.499,160.179 263,164.5C 259.7,166.557 259.867,167.557 263.5,167.5C 263.5,170.167 263.5,172.833 263.5,175.5C 254.915,175.183 246.415,175.517 238,176.5C 237.5,176 237,175.5 236.5,175C 237.346,169.514 235.013,166.848 229.5,167C 230.458,165.853 230.125,164.853 228.5,164C 230.81,163.503 233.143,163.337 235.5,163.5C 236.6,165.495 237.6,168.161 238.5,171.5C 239.318,169.892 239.985,168.225 240.5,166.5C 238.98,164.338 237.98,162.005 237.5,159.5C 233.519,159.028 230.019,159.028 227,159.5C 226.667,157.5 226.333,155.5 226,153.5C 225.529,155.246 224.862,156.913 224,158.5C 223.667,155.5 223.333,152.5 223,149.5C 221.983,152.028 220.816,152.028 219.5,149.5C 218.184,152.028 217.017,152.028 216,149.5C 213.544,151.321 210.711,151.988 207.5,151.5C 207.838,155.151 206.172,156.817 202.5,156.5C 202.5,157.5 202.5,158.5 202.5,159.5C 198.833,159.5 195.167,159.5 191.5,159.5C 191.5,158.5 191.5,157.5 191.5,156.5C 186.167,156.5 180.833,156.5 175.5,156.5C 175.52,158.143 174.853,159.476 173.5,160.5C 177.752,161.183 181.918,162.183 186,163.5C 186.76,161.928 188.594,161.262 191.5,161.5C 191.412,164.309 189.912,165.642 187,165.5C 180.886,164.401 174.053,164.401 166.5,165.5C 163.855,164.892 161.188,164.392 158.5,164C 161.417,162.895 164.417,161.895 167.5,161C 166.259,158.437 164.926,155.937 163.5,153.5C 162.081,155.336 160.914,157.336 160,159.5C 159.013,156.303 159.513,153.47 161.5,151C 159.615,148.922 158.949,146.755 159.5,144.5C 158.03,150.959 157.363,150.626 157.5,143.5C 160.62,143.844 163.453,143.177 166,141.5C 166.5,141.667 167,141.833 167.5,142C 165.729,142.535 165.396,143.369 166.5,144.5C 167.72,143.289 168.887,143.289 170,144.5C 170.617,143.551 170.451,142.718 169.5,142C 171.345,140.872 173.345,140.372 175.5,140.5C 175.5,143.167 175.5,145.833 175.5,148.5C 176.5,148.5 177.5,148.5 178.5,148.5C 178.183,144.828 179.849,143.162 183.5,143.5C 183.324,146.448 183.324,149.114 183.5,151.5C 184.758,146.428 185.425,141.428 185.5,136.5C 186.941,135.696 188.441,135.029 190,134.5C 193.545,136.001 194.045,135.501 191.5,133C 192.321,129.32 194.321,127.486 197.5,127.5C 197.554,128.687 197.887,130.02 198.5,131.5C 199.472,129.364 201.139,128.197 203.5,128C 202.207,127.51 200.873,127.343 199.5,127.5C 199.351,126.448 199.517,125.448 200,124.5C 201.518,123.837 202.685,122.837 203.5,121.5 Z"/></g>
<g><path style="opacity:1" fill="#4b9c73" d="M 205.5,170.5 C 189.284,169.72 172.95,169.387 156.5,169.5C 156.611,168.883 156.944,168.383 157.5,168C 170.174,167.405 182.84,167.572 195.5,168.5C 199.239,168.514 202.572,169.18 205.5,170.5 Z"/></g>
<g><path style="opacity:1" fill="#58a278" d="M 299.5,170.5 C 291.826,170.334 284.159,170.5 276.5,171C 274.667,171.5 273.5,172.667 273,174.5C 272.667,234.167 272.333,293.833 272,353.5C 270.512,355.16 268.679,356.16 266.5,356.5C 266.67,355.178 266.337,354.011 265.5,353C 266.935,353.311 268.268,353.145 269.5,352.5C 270.167,292.167 270.833,231.833 271.5,171.5C 272.5,171.167 273.167,170.5 273.5,169.5C 281.813,168.335 290.147,168.168 298.5,169C 299.056,169.383 299.389,169.883 299.5,170.5 Z"/></g>
<g><path style="opacity:1" fill="#505b62" d="M 375.5,123.5 C 376.665,161.998 376.831,200.664 376,239.5C 375.802,241.382 375.302,243.048 374.5,244.5C 373.957,244.44 373.624,244.107 373.5,243.5C 374.213,241.224 374.713,238.891 375,236.5C 375.5,198.835 375.667,161.168 375.5,123.5 Z"/></g>
<g><path style="opacity:1" fill="#7fcba4" d="M 226.5,174.5 C 227.833,192.654 228.5,211.154 228.5,230C 228.5,248.67 228.167,267.17 227.5,285.5C 227.827,248.427 227.493,211.427 226.5,174.5 Z"/></g>
<g><path style="opacity:1" fill="#b1eccd" d="M 176.5,189.5 C 172.833,190.833 169.167,190.833 165.5,189.5C 169.088,188.669 172.755,188.669 176.5,189.5 Z"/></g>
<g><path style="opacity:1" fill="#e48e61" d="M 328.5,189.5 C 317.35,190.684 306.017,191.351 294.5,191.5C 305.624,189.871 316.958,189.204 328.5,189.5 Z"/></g>
<g><path style="opacity:1" fill="#1b8d50" d="M 165.5,189.5 C 169.167,190.833 172.833,190.833 176.5,189.5C 185.843,189.756 195.176,190.256 204.5,191C 206.032,191.7 207.032,192.866 207.5,194.5C 206.247,241.082 206.247,287.415 207.5,333.5C 207.888,335.955 206.888,337.288 204.5,337.5C 154.588,300.33 134.421,250.664 144,188.5C 145.4,187.884 146.9,187.551 148.5,187.5C 154.055,189.022 159.722,189.689 165.5,189.5 Z"/></g>
<g><path style="opacity:1" fill="#f35602" d="M 328.5,189.5 C 333.167,189.5 337.833,189.5 342.5,189.5C 346.5,189.5 350.5,189.5 354.5,189.5C 354.893,208.867 354.393,228.2 353,247.5C 352.333,248.833 351.667,248.833 351,247.5C 350.07,261.561 345.903,274.561 338.5,286.5C 337.833,285.833 337.167,285.167 336.5,284.5C 336.167,285 335.833,285.5 335.5,286C 336.167,287 336.833,288 337.5,289C 336.053,290.666 334.719,292.499 333.5,294.5C 332.548,296.045 332.215,297.712 332.5,299.5C 323.559,312.442 312.892,323.775 300.5,333.5C 298.089,333.863 296.589,332.863 296,330.5C 295.667,330.833 295.333,331.167 295,331.5C 294.5,284.835 294.333,238.168 294.5,191.5C 306.017,191.351 317.35,190.684 328.5,189.5 Z"/></g>
<g><path style="opacity:1" fill="#038d44" d="M 191.5,192.5 C 195.226,192.177 198.893,192.511 202.5,193.5C 203.447,195.059 204.113,196.726 204.5,198.5C 204.714,215.969 204.048,233.969 202.5,252.5C 203.704,258.753 204.371,265.086 204.5,271.5C 205.134,283.501 205.3,295.501 205,307.5C 202.266,308.362 202.099,309.195 204.5,310C 203.296,311.353 202.629,313.019 202.5,315C 202.667,316.5 202.833,318 203,319.5C 203.333,316.833 203.667,314.167 204,311.5C 204.837,315.295 204.504,318.961 203,322.5C 202,323.167 201,323.833 200,324.5C 199.9,321.464 200.4,318.464 201.5,315.5C 201.389,310.621 200.222,310.288 198,314.5C 197.506,316.134 197.34,317.801 197.5,319.5C 196.448,319.649 195.448,319.483 194.5,319C 195.302,315.902 195.969,312.735 196.5,309.5C 195.485,306.197 195.485,302.864 196.5,299.5C 195.442,295.88 194.608,292.214 194,288.5C 193.667,293.5 193.333,298.5 193,303.5C 191.493,305.008 189.827,306.341 188,307.5C 187.736,305.361 188.569,303.694 190.5,302.5C 191.474,300.257 191.808,297.924 191.5,295.5C 189.833,295.5 188.167,295.5 186.5,295.5C 186.5,294.5 186.5,293.5 186.5,292.5C 184.5,292.5 182.5,292.5 180.5,292.5C 180.462,296.953 179.295,300.953 177,304.5C 176.333,303.167 175.667,303.167 175,304.5C 175.263,303.049 175.096,301.716 174.5,300.5C 170.849,301.325 170.682,300.659 174,298.5C 174.333,298.833 174.667,299.167 175,299.5C 175.601,297.863 176.101,296.197 176.5,294.5C 174.248,292.41 172.581,289.91 171.5,287C 167.032,287.414 166.365,289.414 169.5,293C 174.467,293.482 174.8,294.982 170.5,297.5C 169.304,297.154 169.304,296.654 170.5,296C 169.167,295.333 167.833,294.667 166.5,294C 166.833,293.667 167.167,293.333 167.5,293C 166.207,292.51 164.873,292.343 163.5,292.5C 161.762,287.603 159.429,282.936 156.5,278.5C 155.57,276.895 155.57,275.395 156.5,274C 155.646,272.978 154.646,272.145 153.5,271.5C 152.793,267.665 151.626,263.998 150,260.5C 149.727,256.51 149.561,252.676 149.5,249C 150.504,247.202 151.004,245.368 151,243.5C 150.085,244.328 149.419,245.328 149,246.5C 147.383,243.304 147.55,240.137 149.5,237C 149.167,236.833 148.833,236.667 148.5,236.5C 147.749,237.376 147.249,238.376 147,239.5C 146.316,237.521 146.816,235.854 148.5,234.5C 145.842,229.869 145.842,225.202 148.5,220.5C 148.04,215.491 147.706,210.491 147.5,205.5C 147.875,203.541 148.541,201.707 149.5,200C 148.643,199.311 147.977,198.478 147.5,197.5C 148.76,196.618 149.926,195.618 151,194.5C 151.381,202.049 152.214,209.549 153.5,217C 153.669,220.412 153.003,223.579 151.5,226.5C 152.855,230.392 153.689,230.059 154,225.5C 154.667,228.5 154.667,231.5 154,234.5C 152.755,230.502 151.922,230.669 151.5,235C 152.36,239.351 153.693,243.518 155.5,247.5C 155.324,249.672 155.157,252.005 155,254.5C 154.5,255 154,255.5 153.5,256C 154.406,257.699 154.739,259.533 154.5,261.5C 155.5,261.5 156.5,261.5 157.5,261.5C 157.528,259.418 156.861,257.584 155.5,256C 159.063,251.156 160.23,245.656 159,239.5C 158.417,241.002 157.584,242.335 156.5,243.5C 156.167,243.167 155.833,242.833 155.5,242.5C 155.577,238.404 156.244,234.237 157.5,230C 155.699,222.959 155.199,215.792 156,208.5C 156.333,208.167 156.667,207.833 157,207.5C 157.483,208.448 157.649,209.448 157.5,210.5C 160.833,210.5 164.167,210.5 167.5,210.5C 167.5,209.5 167.5,208.5 167.5,207.5C 164.5,207.5 161.5,207.5 158.5,207.5C 157.833,205.181 157.666,202.847 158,200.5C 158.333,200.833 158.667,201.167 159,201.5C 161.128,198.264 163.961,197.597 167.5,199.5C 169.945,199.597 172.111,198.93 174,197.5C 179.578,197.049 185.245,197.049 191,197.5C 191.494,195.866 191.66,194.199 191.5,192.5 Z"/></g>
<g><path style="opacity:1" fill="#e1692c" d="M 294.5,191.5 C 294.333,238.168 294.5,284.835 295,331.5C 295.333,331.167 295.667,330.833 296,330.5C 296.589,332.863 298.089,333.863 300.5,333.5C 298.571,335.148 296.571,336.815 294.5,338.5C 293.814,332.613 293.147,326.78 292.5,321C 293.794,279.025 293.794,237.192 292.5,195.5C 292.994,193.974 293.661,192.641 294.5,191.5 Z"/></g>
<g><path style="opacity:1" fill="#038e44" d="M 237.5,236.5 C 237.947,241.199 238.614,246.199 239.5,251.5C 238.96,252.748 238.293,253.915 237.5,255C 238.443,260.299 238.443,265.799 237.5,271.5C 238.5,271.5 239.5,271.5 240.5,271.5C 239.624,268.201 239.457,264.868 240,261.5C 240.5,262 241,262.5 241.5,263C 240.289,264.113 240.289,265.28 241.5,266.5C 245.554,269.532 248.887,273.198 251.5,277.5C 253.827,274.863 254.993,271.863 255,268.5C 254.411,270.863 252.911,271.863 250.5,271.5C 250.221,268.882 249.554,266.382 248.5,264C 249.448,263.517 250.448,263.351 251.5,263.5C 251.911,256.524 253.577,249.857 256.5,243.5C 260.544,244.762 263.044,247.428 264,251.5C 264.333,250.833 264.667,250.167 265,249.5C 266.035,251.891 266.202,254.224 265.5,256.5C 266.938,258.923 268.271,261.423 269.5,264C 268.129,266.319 267.462,268.819 267.5,271.5C 266.167,271.5 264.833,271.5 263.5,271.5C 263.948,283.045 265.282,293.712 267.5,303.5C 266.167,303.5 264.833,303.5 263.5,303.5C 263.851,316.72 263.184,329.887 261.5,343C 261.623,346.689 261.957,350.022 262.5,353C 260.447,353.325 258.447,352.991 256.5,352C 257.416,351.626 258.25,351.126 259,350.5C 259.966,345.804 259.466,341.304 257.5,337C 258.022,336.05 258.689,335.216 259.5,334.5C 258.754,333.264 258.421,331.93 258.5,330.5C 257.5,330.5 256.5,330.5 255.5,330.5C 255.719,329.325 255.386,328.325 254.5,327.5C 253.52,330.086 253.187,332.753 253.5,335.5C 251.5,335.5 249.5,335.5 247.5,335.5C 247.3,347.303 246.633,347.303 245.5,335.5C 243.167,335.5 240.833,335.5 238.5,335.5C 237.388,330.162 237.388,324.829 238.5,319.5C 239.807,318.184 241.307,317.184 243,316.5C 243.483,315.552 243.649,314.552 243.5,313.5C 244.833,313.5 246.167,313.5 247.5,313.5C 247.5,311.833 247.5,310.167 247.5,308.5C 243.817,308.087 240.483,308.921 237.5,311C 238.833,311.333 240.167,311.667 241.5,312C 240.033,313.098 239.199,314.598 239,316.5C 238,315.167 237,315.167 236,316.5C 235.673,326.548 236.007,336.548 237,346.5C 236,345.833 235,345.167 234,344.5C 233.505,341.469 233.671,338.469 234.5,335.5C 232.641,335.539 231.308,334.706 230.5,333C 232.229,329.939 232.563,326.772 231.5,323.5C 231.901,321.566 232.901,320.066 234.5,319C 233.711,316.733 233.044,314.4 232.5,312C 234.21,308.991 236.543,306.658 239.5,305C 240.287,302.901 240.62,300.734 240.5,298.5C 242.833,298.5 245.167,298.5 247.5,298.5C 247.5,297.5 247.5,296.5 247.5,295.5C 249.167,295.5 250.833,295.5 252.5,295.5C 254.386,289.236 255.386,289.236 255.5,295.5C 256.833,295.5 258.167,295.5 259.5,295.5C 259.423,291.785 259.756,288.119 260.5,284.5C 259.5,284.5 258.5,284.5 257.5,284.5C 257.719,283.325 257.386,282.325 256.5,281.5C 255.534,283.396 255.201,285.396 255.5,287.5C 253.5,287.5 251.5,287.5 249.5,287.5C 249.509,285.692 249.009,284.025 248,282.5C 246.75,283.573 245.416,283.573 244,282.5C 241.948,284.056 240.448,286.056 239.5,288.5C 238.624,289.251 237.624,289.751 236.5,290C 237.097,291.062 237.43,292.228 237.5,293.5C 236.771,296.855 235.938,300.188 235,303.5C 230.884,294.319 233.05,286.652 241.5,280.5C 240.273,279.41 239.44,278.076 239,276.5C 237.748,278.001 236.748,279.668 236,281.5C 236.256,269.192 236.089,257.025 235.5,245C 235.362,241.896 236.029,239.062 237.5,236.5 Z"/></g>
<g><path style="opacity:1" fill="#ee8b57" d="M 342.5,189.5 C 346.9,188.177 351.4,188.177 356,189.5C 357.308,211.622 356.308,233.622 353,255.5C 349.081,271.663 342.248,286.33 332.5,299.5C 332.215,297.712 332.548,296.045 333.5,294.5C 334.719,292.499 336.053,290.666 337.5,289C 336.833,288 336.167,287 335.5,286C 335.833,285.5 336.167,285 336.5,284.5C 337.167,285.167 337.833,285.833 338.5,286.5C 345.903,274.561 350.07,261.561 351,247.5C 351.667,248.833 352.333,248.833 353,247.5C 354.393,228.2 354.893,208.867 354.5,189.5C 350.5,189.5 346.5,189.5 342.5,189.5 Z"/></g>
<g><path style="opacity:1" fill="#071825" d="M 102.5,242.5 C 103.628,245.185 104.962,247.852 106.5,250.5C 105.05,251.85 104.383,253.516 104.5,255.5C 105.552,255.351 106.552,255.517 107.5,256C 106.366,257.016 106.699,257.683 108.5,258C 107.422,258.674 106.755,259.674 106.5,261C 106.851,264.104 107.351,263.937 108,260.5C 109.073,263.968 111.073,265.635 114,265.5C 117.356,263.004 118.189,259.838 116.5,256C 119.059,252.961 120.226,253.794 120,258.5C 121.353,262.41 123.853,263.743 127.5,262.5C 126.652,260.591 126.318,258.591 126.5,256.5C 138.26,296.162 160.594,328.662 193.5,354C 208.451,364.959 223.784,375.126 239.5,384.5C 236.728,385.371 234.062,385.371 231.5,384.5C 231.413,387.598 231.913,387.932 233,385.5C 236.097,386.289 236.264,387.456 233.5,389C 233.833,389.333 234.167,389.667 234.5,390C 233.712,393.076 233.212,396.242 233,399.5C 231.829,397.411 230.496,395.411 229,393.5C 227.559,394.26 226.059,394.926 224.5,395.5C 223.369,397.074 223.202,398.741 224,400.5C 225.667,400.167 227.333,399.833 229,399.5C 231.89,402.718 234.89,405.051 238,406.5C 239.109,402.983 240.276,402.816 241.5,406C 241.409,407.814 241.075,409.647 240.5,411.5C 199.972,392.306 165.472,365.306 137,330.5C 116.813,303.254 105.313,273.92 102.5,242.5 Z"/></g>
<g><path style="opacity:1" fill="#071824" d="M 397.5,229.5 C 396.134,272.628 380.967,310.628 352,343.5C 325.953,371.068 296.12,393.402 262.5,410.5C 261.221,409.285 260.221,409.618 259.5,411.5C 253.204,415.492 246.871,415.492 240.5,411.5C 241.075,409.647 241.409,407.814 241.5,406C 240.276,402.816 239.109,402.983 238,406.5C 234.89,405.051 231.89,402.718 229,399.5C 227.333,399.833 225.667,400.167 224,400.5C 223.202,398.741 223.369,397.074 224.5,395.5C 226.059,394.926 227.559,394.26 229,393.5C 230.496,395.411 231.829,397.411 233,399.5C 233.212,396.242 233.712,393.076 234.5,390C 234.167,389.667 233.833,389.333 233.5,389C 236.264,387.456 236.097,386.289 233,385.5C 231.913,387.932 231.413,387.598 231.5,384.5C 234.062,385.371 236.728,385.371 239.5,384.5C 242.8,386.108 246.133,387.775 249.5,389.5C 281.712,374.146 310.212,353.479 335,327.5C 353.224,305.988 365.724,282.488 372.5,257C 372.043,256.586 371.709,256.086 371.5,255.5C 372.754,252.806 373.754,250.139 374.5,247.5C 374.238,248.978 374.571,250.311 375.5,251.5C 376.086,251.291 376.586,250.957 377,250.5C 376.672,253.271 375.505,255.771 373.5,258C 374.866,259.6 375.866,261.433 376.5,263.5C 377.426,259.403 378.926,256.07 381,253.5C 382.946,254.994 383.779,256.994 383.5,259.5C 382.113,263.085 381.613,266.752 382,270.5C 383.707,271.138 385.54,271.138 387.5,270.5C 387.335,267.482 387.502,264.482 388,261.5C 389,261.5 390,261.5 391,261.5C 392.113,260.24 392.28,259.073 391.5,258C 392.728,257.221 393.728,256.221 394.5,255C 394.277,251.335 394.277,247.502 394.5,243.5C 393.5,243.5 392.5,243.5 391.5,243.5C 391.36,245.124 392.027,246.29 393.5,247C 393,247.5 392.5,248 392,248.5C 388.802,242.698 387.302,236.364 387.5,229.5C 389.262,229.357 390.929,229.691 392.5,230.5C 393.262,229.372 393.929,228.205 394.5,227C 393.328,226.581 392.328,225.915 391.5,225C 394.38,224.825 395.88,226.325 396,229.5C 396.69,228.262 397.19,228.262 397.5,229.5 Z"/></g>
<g><path style="opacity:1" fill="#d3d4d5" d="M 262.5,410.5 C 261.609,411.11 260.609,411.443 259.5,411.5C 260.221,409.618 261.221,409.285 262.5,410.5 Z"/></g>
</svg>
