<?xml version="1.0" encoding="UTF-8"?>
<!DOCTYPE svg PUBLIC "-//W3C//DTD SVG 1.1//EN" "http://www.w3.org/Graphics/SVG/1.1/DTD/svg11.dtd">
<svg xmlns="http://www.w3.org/2000/svg" version="1.1" width="500px" height="500px" style="shape-rendering:geometricPrecision; text-rendering:geometricPrecision; image-rendering:optimizeQuality; fill-rule:evenodd; clip-rule:evenodd" xmlns:xlink="http://www.w3.org/1999/xlink">
<g><path style="opacity:1" fill="#f9f9f9" d="M 100.5,-0.5 C 199.833,-0.5 299.167,-0.5 398.5,-0.5C 402.567,1.05378 406.9,1.72045 411.5,1.5C 437.147,7.14902 458.147,20.149 474.5,40.5C 473.677,42.4546 473.51,44.4546 474,46.5C 474.333,45.5 474.667,44.5 475,43.5C 476.049,45.3844 477.549,46.7177 479.5,47.5C 480.338,47.8417 480.672,48.5084 480.5,49.5C 480.738,51.4044 481.738,52.7377 483.5,53.5C 485.008,55.1815 486.008,57.1815 486.5,59.5C 486.047,60.4584 485.381,61.2917 484.5,62C 486.66,63.332 488.66,64.832 490.5,66.5C 494.737,75.5419 497.737,84.8753 499.5,94.5C 499.5,196.833 499.5,299.167 499.5,401.5C 498.778,401.918 498.278,402.584 498,403.5C 497.503,406.146 497.336,408.813 497.5,411.5C 493.27,431.053 484.27,448.053 470.5,462.5C 469.5,462.833 468.833,463.5 468.5,464.5C 468.5,465.833 467.833,466.5 466.5,466.5C 465.5,466.833 464.833,467.5 464.5,468.5C 447.721,484.884 427.721,495.217 404.5,499.5C 301.5,499.5 198.5,499.5 95.5,499.5C 80.4145,496.955 66.4145,491.622 53.5,483.5C 53.0269,482.094 52.0269,481.427 50.5,481.5C 50.0269,480.094 49.0269,479.427 47.5,479.5C 47.0269,478.094 46.0269,477.427 44.5,477.5C 40.128,474.123 36.128,470.457 32.5,466.5C 32.1667,465.5 31.5,464.833 30.5,464.5C 27.0319,460.982 23.5319,457.316 20,453.5C 17.2204,448.938 14.7204,444.272 12.5,439.5C 13.4285,435.517 12.0951,432.85 8.5,431.5C 6.03676,427.557 4.37009,423.224 3.5,418.5C 3.82943,415.772 3.16276,413.438 1.5,411.5C 0.833333,409.167 0.166667,406.833 -0.5,404.5C -0.5,301.167 -0.5,197.833 -0.5,94.5C 1.12508,88.6065 2.79175,82.6065 4.5,76.5C 6.83372,74.8243 7.83372,72.491 7.5,69.5C 9.32325,64.5201 11.6566,59.8535 14.5,55.5C 15.9063,55.0269 16.573,54.0269 16.5,52.5C 31.4447,27.8965 52.778,11.5631 80.5,3.5C 83.2282,3.82943 85.5615,3.16276 87.5,1.5C 87.8333,1.5 88.1667,1.5 88.5,1.5C 90.2624,1.35729 91.9291,1.69063 93.5,2.5C 95.7639,1.13077 98.0972,0.130766 100.5,-0.5 Z M 244.5,68.5 C 261.652,67.7427 274.986,74.4094 284.5,88.5C 285.65,91.2982 286.983,93.9648 288.5,96.5C 293.256,118.083 286.256,134.583 267.5,146C 247.47,153.698 230.47,149.532 216.5,133.5C 212.83,127.527 210.163,121.193 208.5,114.5C 208.5,111.167 208.5,107.833 208.5,104.5C 209.612,102.401 210.279,100.067 210.5,97.5C 215.228,84.1056 224.228,75.1056 237.5,70.5C 240.01,70.0733 242.343,69.4067 244.5,68.5 Z M 193.5,134.5 C 200.867,149.869 212.533,160.702 228.5,167C 231.117,167.822 233.784,168.322 236.5,168.5C 238.604,170.099 240.604,171.932 242.5,174C 238.414,177.079 234.414,180.246 230.5,183.5C 228.214,183.595 226.214,184.262 224.5,185.5C 210.136,189.512 197.803,196.845 187.5,207.5C 185.086,208.911 183.419,210.911 182.5,213.5C 179.067,216.601 176.4,220.268 174.5,224.5C 173.094,224.973 172.427,225.973 172.5,227.5C 170.976,230.074 169.642,232.741 168.5,235.5C 167.883,235.611 167.383,235.944 167,236.5C 162.334,234.633 157.501,233.8 152.5,234C 150.926,235.826 150.093,237.993 150,240.5C 148.644,241.38 147.144,241.714 145.5,241.5C 144.391,241.443 143.391,241.11 142.5,240.5C 139.554,237.687 136.221,235.354 132.5,233.5C 129.582,231.747 127.582,229.247 126.5,226C 127.854,219.72 129.521,213.553 131.5,207.5C 133.624,201.806 135.957,196.14 138.5,190.5C 140.071,188.365 141.404,186.032 142.5,183.5C 144.664,181.178 146.331,178.511 147.5,175.5C 155.093,165.238 163.759,155.905 173.5,147.5C 175.027,147.573 176.027,146.906 176.5,145.5C 177.167,145.5 177.5,145.167 177.5,144.5C 182.869,141.153 188.203,137.819 193.5,134.5 Z M 365.5,234.5 C 359.497,238.171 353.497,241.838 347.5,245.5C 346.609,244.739 345.942,243.739 345.5,242.5C 346.776,239.966 347.11,237.466 346.5,235C 341,234.151 335.667,234.651 330.5,236.5C 329.241,232.353 327.241,228.686 324.5,225.5C 312.622,204.389 294.955,190.723 271.5,184.5C 266.238,181.244 261.238,177.578 256.5,173.5C 259.589,171.075 262.922,169.075 266.5,167.5C 266.833,167.5 267.167,167.5 267.5,167.5C 269.553,167.598 271.22,166.931 272.5,165.5C 274.284,165.107 275.95,164.441 277.5,163.5C 281.736,161.555 285.403,158.888 288.5,155.5C 293.287,152.052 296.954,147.719 299.5,142.5C 301.588,140.664 302.921,138.331 303.5,135.5C 303.56,134.957 303.893,134.624 304.5,134.5C 341.599,155.42 364.099,186.753 372,228.5C 369.637,230.366 367.47,232.366 365.5,234.5 Z"/></g>
<g><path style="opacity:1" fill="#6b6b6b" d="M 398.5,-0.5 C 400.5,-0.5 402.5,-0.5 404.5,-0.5C 406.833,0.166667 409.167,0.833333 411.5,1.5C 406.9,1.72045 402.567,1.05378 398.5,-0.5 Z"/></g>
<g><path style="opacity:1" fill="#9e9e9e" d="M 94.5,-0.5 C 96.5,-0.5 98.5,-0.5 100.5,-0.5C 98.0972,0.130766 95.7639,1.13077 93.5,2.5C 91.9291,1.69063 90.2624,1.35729 88.5,1.5C 90.5,0.833333 92.5,0.166667 94.5,-0.5 Z"/></g>
<g><path style="opacity:1" fill="#6f6f6f" d="M 87.5,1.5 C 85.5615,3.16276 83.2282,3.82943 80.5,3.5C 82.5994,2.38815 84.9327,1.72148 87.5,1.5 Z"/></g>
<g><path style="opacity:1" fill="#a6a6a6" d="M 474.5,40.5 C 476.409,42.6488 478.076,44.9821 479.5,47.5C 477.549,46.7177 476.049,45.3844 475,43.5C 474.667,44.5 474.333,45.5 474,46.5C 473.51,44.4546 473.677,42.4546 474.5,40.5 Z"/></g>
<g><path style="opacity:1" fill="#696969" d="M 480.5,49.5 C 482.262,50.2623 483.262,51.5956 483.5,53.5C 481.738,52.7377 480.738,51.4044 480.5,49.5 Z"/></g>
<g><path style="opacity:1" fill="#535353" d="M 16.5,52.5 C 16.573,54.0269 15.9063,55.0269 14.5,55.5C 14.427,53.9731 15.0937,52.9731 16.5,52.5 Z"/></g>
<g><path style="opacity:1" fill="#a5a5a5" d="M 486.5,59.5 C 488.199,61.5664 489.532,63.8997 490.5,66.5C 488.66,64.832 486.66,63.332 484.5,62C 485.381,61.2917 486.047,60.4584 486.5,59.5 Z"/></g>
<g><path style="opacity:1" fill="#5b6166" d="M 244.5,68.5 C 242.343,69.4067 240.01,70.0733 237.5,70.5C 237.611,69.8826 237.944,69.3826 238.5,69C 240.473,68.5045 242.473,68.3379 244.5,68.5 Z"/></g>
<g><path style="opacity:1" fill="#888888" d="M 7.5,69.5 C 7.83372,72.491 6.83372,74.8243 4.5,76.5C 5.26377,73.9823 6.26377,71.649 7.5,69.5 Z"/></g>
<g><path style="opacity:1" fill="#83898f" d="M 284.5,88.5 C 287.306,90.2993 288.639,92.9659 288.5,96.5C 286.983,93.9648 285.65,91.2982 284.5,88.5 Z"/></g>
<g><path style="opacity:1" fill="#69696e" d="M 210.5,97.5 C 210.279,100.067 209.612,102.401 208.5,104.5C 208.171,101.772 208.837,99.4385 210.5,97.5 Z"/></g>
<g><path style="opacity:1" fill="#adb2ba" d="M 208.5,114.5 C 210.163,121.193 212.83,127.527 216.5,133.5C 215.234,132.91 213.901,132.41 212.5,132C 213.552,130.284 212.886,129.284 210.5,129C 211.706,126.291 210.706,124.625 207.5,124C 208.574,123.261 209.241,122.261 209.5,121C 208.713,118.901 208.38,116.734 208.5,114.5 Z"/></g>
<g><path style="opacity:1" fill="#9ca1a8" d="M 303.5,135.5 C 302.921,138.331 301.588,140.664 299.5,142.5C 296.742,141.033 297.075,140.367 300.5,140.5C 300.67,139.178 300.337,138.011 299.5,137C 300.901,136.59 302.234,136.09 303.5,135.5 Z"/></g>
<g><path style="opacity:1" fill="#bbc0c4" d="M 193.5,134.5 C 188.203,137.819 182.869,141.153 177.5,144.5C 177.389,143.883 177.056,143.383 176.5,143C 181.063,139.296 186.063,136.129 191.5,133.5C 192.183,133.863 192.85,134.196 193.5,134.5 Z"/></g>
<g><path style="opacity:1" fill="#3a3d3e" d="M 176.5,145.5 C 176.027,146.906 175.027,147.573 173.5,147.5C 173.973,146.094 174.973,145.427 176.5,145.5 Z"/></g>
<g><path style="opacity:1" fill="#b9c0c7" d="M 288.5,155.5 C 285.403,158.888 281.736,161.555 277.5,163.5C 277.33,162.178 277.663,161.011 278.5,160C 281.368,157.968 284.368,156.135 287.5,154.5C 288.107,154.624 288.44,154.957 288.5,155.5 Z"/></g>
<g><path style="opacity:1" fill="#8b9094" d="M 272.5,165.5 C 271.22,166.931 269.553,167.598 267.5,167.5C 268.006,164.266 269.672,163.599 272.5,165.5 Z"/></g>
<g><path style="opacity:1" fill="#9aa6ab" d="M 147.5,175.5 C 146.331,178.511 144.664,181.178 142.5,183.5C 142.67,182.178 142.337,181.011 141.5,180C 142.448,179.517 143.448,179.351 144.5,179.5C 144.343,178.127 144.51,176.793 145,175.5C 145.77,176.598 146.603,176.598 147.5,175.5 Z"/></g>
<g><path style="opacity:1" fill="#0c1725" d="M 266.5,167.5 C 262.922,169.075 259.589,171.075 256.5,173.5C 261.238,177.578 266.238,181.244 271.5,184.5C 258.219,182.314 244.885,181.981 231.5,183.5C 231.167,183.5 230.833,183.5 230.5,183.5C 234.414,180.246 238.414,177.079 242.5,174C 240.604,171.932 238.604,170.099 236.5,168.5C 246.569,169.995 256.569,169.662 266.5,167.5 Z"/></g>
<g><path style="opacity:1" fill="#878994" d="M 230.5,183.5 C 230.833,183.5 231.167,183.5 231.5,183.5C 229.485,184.924 227.152,185.59 224.5,185.5C 226.214,184.262 228.214,183.595 230.5,183.5 Z"/></g>
<g><path style="opacity:1" fill="#a7afb4" d="M 138.5,190.5 C 135.957,196.14 133.624,201.806 131.5,207.5C 131.556,201.766 133.222,196.599 136.5,192C 136.167,191.667 135.833,191.333 135.5,191C 136.448,190.517 137.448,190.351 138.5,190.5 Z"/></g>
<g><path style="opacity:1" fill="#5f5f6e" d="M 187.5,207.5 C 186.581,210.089 184.914,212.089 182.5,213.5C 183.419,210.911 185.086,208.911 187.5,207.5 Z"/></g>
<g><path style="opacity:1" fill="#42434b" d="M 174.5,224.5 C 174.573,226.027 173.906,227.027 172.5,227.5C 172.427,225.973 173.094,224.973 174.5,224.5 Z"/></g>
<g><path style="opacity:1" fill="#a2a9b0" d="M 324.5,225.5 C 327.241,228.686 329.241,232.353 330.5,236.5C 330.5,237.167 330.5,237.833 330.5,238.5C 329.198,236.328 328.032,233.994 327,231.5C 326.195,233.901 325.362,233.734 324.5,231C 325.536,229.224 325.536,227.391 324.5,225.5 Z"/></g>
<g><path style="opacity:1" fill="#a5a8ac" d="M 132.5,233.5 C 136.221,235.354 139.554,237.687 142.5,240.5C 141.883,240.611 141.383,240.944 141,241.5C 137.47,239.491 134.637,236.824 132.5,233.5 Z"/></g>
<g><path style="opacity:1" fill="#041123" d="M 347.5,245.5 C 347.167,246.167 346.833,246.833 346.5,247.5C 342.718,249.951 338.718,251.951 334.5,253.5C 334.255,248.184 332.921,243.184 330.5,238.5C 330.5,237.833 330.5,237.167 330.5,236.5C 335.667,234.651 341,234.151 346.5,235C 347.11,237.466 346.776,239.966 345.5,242.5C 345.942,243.739 346.609,244.739 347.5,245.5 Z"/></g>
<g><path style="opacity:1" fill="#031122" d="M 168.5,235.5 C 166.803,241.629 164.803,247.629 162.5,253.5C 157.036,250.532 151.703,247.366 146.5,244C 145.748,243.329 145.414,242.496 145.5,241.5C 147.144,241.714 148.644,241.38 150,240.5C 150.093,237.993 150.926,235.826 152.5,234C 157.501,233.8 162.334,234.633 167,236.5C 167.383,235.944 167.883,235.611 168.5,235.5 Z"/></g>
<g><path style="opacity:1" fill="#bfc5ca" d="M 365.5,234.5 C 364.496,237.993 362.163,239.827 358.5,240C 357.743,241.512 356.743,242.846 355.5,244C 352.229,243.949 349.229,245.116 346.5,247.5C 346.833,246.833 347.167,246.167 347.5,245.5C 353.497,241.838 359.497,238.171 365.5,234.5 Z"/></g>
<g><path style="opacity:1" fill="#379c61" d="M 124.5,252.5 C 121.618,252.392 119.285,251.226 117.5,249C 115.833,248.333 114.167,248.333 112.5,249C 111.332,253.394 109.332,257.227 106.5,260.5C 106.366,258.708 106.699,257.042 107.5,255.5C 109.201,251.411 111.368,247.744 114,244.5C 117.958,246.633 121.458,249.299 124.5,252.5 Z"/></g>
<g><path style="opacity:1" fill="#0f9c4b" d="M 124.5,252.5 C 138.338,261.253 152.338,269.753 166.5,278C 189.595,295.442 202.262,318.608 204.5,347.5C 204.354,361.622 203.021,375.622 200.5,389.5C 198.394,393.491 197.061,397.824 196.5,402.5C 162.536,396.018 135.536,378.684 115.5,350.5C 115.313,348.436 114.813,346.436 114,344.5C 111.284,340.335 108.951,336.002 107,331.5C 104.606,323.683 102.606,315.683 101,307.5C 99.7876,297.593 100.954,288.093 104.5,279C 104.167,278.667 103.833,278.333 103.5,278C 104.357,272.564 105.024,267.064 105.5,261.5C 105.5,260.833 105.833,260.5 106.5,260.5C 109.332,257.227 111.332,253.394 112.5,249C 114.167,248.333 115.833,248.333 117.5,249C 119.285,251.226 121.618,252.392 124.5,252.5 Z"/></g>
<g><path style="opacity:1" fill="#de6230" d="M 331.5,279.5 C 326.685,284.872 321.685,290.038 316.5,295C 315.906,295.464 315.239,295.631 314.5,295.5C 318.901,288.764 324.568,283.43 331.5,279.5 Z"/></g>
<g><path style="opacity:1" fill="#f14b03" d="M 312.5,399.5 C 309.518,399.963 306.518,400.296 303.5,400.5C 301.79,395.012 300.457,389.346 299.5,383.5C 299.036,381.025 298.036,379.025 296.5,377.5C 296.5,376.833 296.5,376.167 296.5,375.5C 295.565,363.846 295.398,352.179 296,340.5C 298.502,331.497 301.002,322.497 303.5,313.5C 305.664,306.49 309.331,300.49 314.5,295.5C 315.239,295.631 315.906,295.464 316.5,295C 321.685,290.038 326.685,284.872 331.5,279.5C 333.913,277.113 336.58,274.946 339.5,273C 347.716,268.729 355.716,264.229 363.5,259.5C 370.257,254.276 377.257,249.276 384.5,244.5C 404.243,278.591 404.41,312.924 385,347.5C 367.698,374.288 343.531,391.621 312.5,399.5 Z"/></g>
<g><path style="opacity:1" fill="#f24500" d="M 363.5,259.5 C 364.583,259.461 365.583,259.127 366.5,258.5C 367.298,260.078 367.798,261.744 368,263.5C 369.085,262.707 370.252,262.04 371.5,261.5C 373.632,263.117 375.965,263.617 378.5,263C 375.615,261.067 374.948,258.567 376.5,255.5C 377.429,256.689 377.762,258.022 377.5,259.5C 380.118,259.779 382.618,260.446 385,261.5C 386.89,266.126 389.39,270.293 392.5,274C 390.124,273.5 387.79,272.667 385.5,271.5C 385.514,274.627 384.514,277.293 382.5,279.5C 382.529,281.029 383.196,282.196 384.5,283C 381.687,284.323 379.354,286.156 377.5,288.5C 373.666,288.267 370.166,287.267 367,285.5C 364.667,292.167 362.333,292.167 360,285.5C 357.5,288.667 355,291.833 352.5,295C 353.081,295.893 353.415,296.893 353.5,298C 352.622,299.8 351.955,301.633 351.5,303.5C 355.281,301.976 357.781,303.309 359,307.5C 359.49,306.207 359.657,304.873 359.5,303.5C 361.5,303.5 363.5,303.5 365.5,303.5C 365.534,299.37 366.201,295.37 367.5,291.5C 370.167,291.5 372.833,291.5 375.5,291.5C 375.5,292.5 375.5,293.5 375.5,294.5C 378.167,294.833 380.833,295.167 383.5,295.5C 383.336,298.187 383.503,300.854 384,303.5C 384.914,302.346 385.747,302.513 386.5,304C 384.275,307.578 384.275,310.911 386.5,314C 385.167,315.84 385.334,316.34 387,315.5C 387.173,311.459 387.673,307.459 388.5,303.5C 390.258,310.508 389.592,317.175 386.5,323.5C 385.522,323.023 384.689,322.357 384,321.5C 382.255,325.996 381.421,330.662 381.5,335.5C 377.665,336.004 377.665,337.004 381.5,338.5C 380.663,340.844 379.329,342.844 377.5,344.5C 378.535,346.668 378.035,348.334 376,349.5C 375.016,347.205 374.183,347.539 373.5,350.5C 372.311,351.429 370.978,351.762 369.5,351.5C 369.837,347.692 369.337,344.026 368,340.5C 367.855,344.027 367.022,347.36 365.5,350.5C 367.213,351.878 368.547,353.545 369.5,355.5C 367.537,357.183 367.37,358.849 369,360.5C 370.516,357.949 371.349,358.282 371.5,361.5C 369.94,361.519 368.44,361.852 367,362.5C 364.675,360.226 361.841,359.059 358.5,359C 356.5,356.667 354.5,354.333 352.5,352C 354.81,351.503 357.143,351.337 359.5,351.5C 359.387,348.951 360.054,346.618 361.5,344.5C 359.995,343.158 359.328,341.492 359.5,339.5C 356.223,339.216 353.057,339.549 350,340.5C 347.959,345.456 348.459,350.123 351.5,354.5C 349.61,354.297 348.11,354.963 347,356.5C 345.763,360.06 345.263,363.727 345.5,367.5C 349.444,368.274 349.277,368.941 345,369.5C 335.52,364.313 333.354,366.48 338.5,376C 337.663,377.011 337.33,378.178 337.5,379.5C 334.167,379.5 330.833,379.5 327.5,379.5C 327.5,378.167 327.5,376.833 327.5,375.5C 328.833,375.5 330.167,375.5 331.5,375.5C 331.5,370.833 331.5,366.167 331.5,361.5C 330.167,361.5 328.833,361.5 327.5,361.5C 327.187,358.753 327.52,356.086 328.5,353.5C 333.646,352.011 333.313,351.344 327.5,351.5C 327.5,350.167 327.5,348.833 327.5,347.5C 325.5,347.5 323.5,347.5 321.5,347.5C 321.714,345.856 321.38,344.356 320.5,343C 322.62,340.591 324.62,338.091 326.5,335.5C 324.408,332.319 322.075,329.319 319.5,326.5C 321.869,326.985 324.203,326.319 326.5,324.5C 327.754,322.741 327.421,321.241 325.5,320C 327.387,320.423 329.387,320.256 331.5,319.5C 331.5,317.5 331.5,315.5 331.5,313.5C 329.508,313.672 327.842,313.005 326.5,311.5C 325.217,308.628 325.217,305.795 326.5,303C 325.5,302 324.5,301 323.5,300C 327.512,299.43 328.012,298.263 325,296.5C 324.333,299.167 323.667,299.167 323,296.5C 322.667,296.833 322.333,297.167 322,297.5C 321.691,296.234 321.191,295.067 320.5,294C 323.316,293.177 325.65,291.677 327.5,289.5C 329.22,297.443 330.886,297.443 332.5,289.5C 332.167,289.167 331.833,288.833 331.5,288.5C 330.224,293.682 329.557,293.682 329.5,288.5C 327.058,288.646 326.391,287.813 327.5,286C 334.969,288.075 339.969,285.075 342.5,277C 345.308,276.08 347.475,276.913 349,279.5C 350.558,275.721 353.224,274.387 357,275.5C 357.219,276.938 357.719,278.271 358.5,279.5C 359.474,277.257 359.808,274.924 359.5,272.5C 361.429,272.769 363.095,272.269 364.5,271C 362.459,269.259 360.292,269.092 358,270.5C 357.25,269.874 356.416,269.374 355.5,269C 356.833,268.333 356.833,267.667 355.5,267C 357.419,265.066 358.919,265.233 360,267.5C 361.008,267.018 362.175,266.852 363.5,267C 365.036,265.401 365.536,263.567 365,261.5C 364.667,261.833 364.333,262.167 364,262.5C 363.517,261.552 363.351,260.552 363.5,259.5 Z"/></g>
<g><path style="opacity:1" fill="#e0f6e7" d="M 107.5,255.5 C 106.699,257.042 106.366,258.708 106.5,260.5C 105.833,260.5 105.5,260.833 105.5,261.5C 99.8374,276.56 98.004,292.226 100,308.5C 100.455,311.854 100.955,315.187 101.5,318.5C 100.028,315.731 98.8611,312.731 98,309.5C 97.3333,300.5 97.3333,291.5 98,282.5C 99.01,279.559 99.1767,276.726 98.5,274C 98.8507,270.896 99.3507,271.063 100,274.5C 99.9099,266.899 102.41,260.566 107.5,255.5 Z"/></g>
<g><path style="opacity:1" fill="#309e5d" d="M 105.5,261.5 C 105.024,267.064 104.357,272.564 103.5,278C 103.833,278.333 104.167,278.667 104.5,279C 100.954,288.093 99.7876,297.593 101,307.5C 102.606,315.683 104.606,323.683 107,331.5C 108.951,336.002 111.284,340.335 114,344.5C 114.813,346.436 115.313,348.436 115.5,350.5C 109.103,340.662 104.437,329.996 101.5,318.5C 100.955,315.187 100.455,311.854 100,308.5C 98.004,292.226 99.8374,276.56 105.5,261.5 Z"/></g>
<g><path style="opacity:1" fill="#e0632f" d="M 303.5,313.5 C 301.002,322.497 298.502,331.497 296,340.5C 295.398,352.179 295.565,363.846 296.5,375.5C 290.811,353.931 293.144,333.265 303.5,313.5 Z"/></g>
<g><path style="opacity:1" fill="#e25e27" d="M 264.5,369.5 C 262.723,370.6 260.723,371.434 258.5,372C 246.817,372.666 235.15,372.499 223.5,371.5C 222.725,376.797 222.392,382.13 222.5,387.5C 221.5,387.5 220.5,387.5 219.5,387.5C 220.933,380.904 221.933,374.237 222.5,367.5C 236.351,371.788 250.351,372.455 264.5,369.5 Z"/></g>
<g><path style="opacity:1" fill="#f14901" d="M 276.5,408.5 C 276.167,408.5 275.833,408.5 275.5,408.5C 266.151,408.835 256.818,409.501 247.5,410.5C 238.792,410.27 230.125,409.603 221.5,408.5C 219.435,408.483 217.435,408.15 215.5,407.5C 216.506,400.818 217.839,394.151 219.5,387.5C 220.5,387.5 221.5,387.5 222.5,387.5C 222.392,382.13 222.725,376.797 223.5,371.5C 235.15,372.499 246.817,372.666 258.5,372C 260.723,371.434 262.723,370.6 264.5,369.5C 265.833,369.5 267.167,369.5 268.5,369.5C 270.262,369.643 271.929,369.309 273.5,368.5C 275.41,376.765 277.076,385.099 278.5,393.5C 278.16,395.512 277.827,397.512 277.5,399.5C 278.5,399.5 279.5,399.5 280.5,399.5C 280.682,403.329 279.348,406.329 276.5,408.5 Z"/></g>
<g><path style="opacity:1" fill="#dbf6e6" d="M 204.5,347.5 C 206.834,356.663 206.834,365.997 204.5,375.5C 204.57,376.772 204.903,377.938 205.5,379C 204.094,382.661 202.427,386.161 200.5,389.5C 203.021,375.622 204.354,361.622 204.5,347.5 Z"/></g>
<g><path style="opacity:1" fill="#e05a25" d="M 296.5,377.5 C 298.036,379.025 299.036,381.025 299.5,383.5C 300.457,389.346 301.79,395.012 303.5,400.5C 306.518,400.296 309.518,399.963 312.5,399.5C 309.314,401.874 305.647,402.874 301.5,402.5C 299.994,394.142 298.327,385.808 296.5,377.5 Z"/></g>
<g><path style="opacity:1" fill="#e55d25" d="M 276.5,408.5 C 279.348,406.329 280.682,403.329 280.5,399.5C 279.5,399.5 278.5,399.5 277.5,399.5C 277.827,397.512 278.16,395.512 278.5,393.5C 277.076,385.099 275.41,376.765 273.5,368.5C 271.929,369.309 270.262,369.643 268.5,369.5C 270.515,368.076 272.848,367.41 275.5,367.5C 278.076,380.88 280.743,394.213 283.5,407.5C 281.139,407.674 278.806,408.007 276.5,408.5 Z"/></g>
<g><path style="opacity:1" fill="#747575" d="M 499.5,401.5 C 499.5,402.5 499.5,403.5 499.5,404.5C 498.833,406.833 498.167,409.167 497.5,411.5C 497.336,408.813 497.503,406.146 498,403.5C 498.278,402.584 498.778,401.918 499.5,401.5 Z"/></g>
<g><path style="opacity:1" fill="#df6230" d="M 221.5,408.5 C 230.125,409.603 238.792,410.27 247.5,410.5C 256.818,409.501 266.151,408.835 275.5,408.5C 273.285,409.268 270.952,409.935 268.5,410.5C 256.188,411.562 243.855,411.728 231.5,411C 228.009,410.262 224.675,409.429 221.5,408.5 Z"/></g>
<g><path style="opacity:1" fill="#fae4d4" d="M 215.5,407.5 C 217.435,408.15 219.435,408.483 221.5,408.5C 224.675,409.429 228.009,410.262 231.5,411C 243.855,411.728 256.188,411.562 268.5,410.5C 262.202,411.83 255.535,412.497 248.5,412.5C 237.579,413.132 226.912,411.965 216.5,409C 215.944,408.617 215.611,408.117 215.5,407.5 Z"/></g>
<g><path style="opacity:1" fill="#6e6e6e" d="M 1.5,411.5 C 3.16276,413.438 3.82943,415.772 3.5,418.5C 2.38815,416.401 1.72148,414.067 1.5,411.5 Z"/></g>
<g><path style="opacity:1" fill="#a9a9a9" d="M 8.5,431.5 C 12.0951,432.85 13.4285,435.517 12.5,439.5C 10.6036,437.163 9.27028,434.496 8.5,431.5 Z"/></g>
<g><path style="opacity:1" fill="#323232" d="M 470.5,462.5 C 470.5,463.833 469.833,464.5 468.5,464.5C 468.833,463.5 469.5,462.833 470.5,462.5 Z"/></g>
<g><path style="opacity:1" fill="#333333" d="M 30.5,464.5 C 31.5,464.833 32.1667,465.5 32.5,466.5C 31.1667,466.5 30.5,465.833 30.5,464.5 Z"/></g>
<g><path style="opacity:1" fill="#343434" d="M 466.5,466.5 C 466.5,467.833 465.833,468.5 464.5,468.5C 464.833,467.5 465.5,466.833 466.5,466.5 Z"/></g>
<g><path style="opacity:1" fill="#4f4f4f" d="M 44.5,477.5 C 46.0269,477.427 47.0269,478.094 47.5,479.5C 45.9731,479.573 44.9731,478.906 44.5,477.5 Z"/></g>
<g><path style="opacity:1" fill="#4c4c4c" d="M 47.5,479.5 C 49.0269,479.427 50.0269,480.094 50.5,481.5C 48.9731,481.573 47.9731,480.906 47.5,479.5 Z"/></g>
<g><path style="opacity:1" fill="#4d4d4d" d="M 50.5,481.5 C 52.0269,481.427 53.0269,482.094 53.5,483.5C 51.9731,483.573 50.9731,482.906 50.5,481.5 Z"/></g>
</svg>
