<?xml version="1.0" encoding="UTF-8"?>
<!DOCTYPE svg PUBLIC "-//W3C//DTD SVG 1.1//EN" "http://www.w3.org/Graphics/SVG/1.1/DTD/svg11.dtd">
<svg xmlns="http://www.w3.org/2000/svg" version="1.1" width="500px" height="500px" style="shape-rendering:geometricPrecision; text-rendering:geometricPrecision; image-rendering:optimizeQuality; fill-rule:evenodd; clip-rule:evenodd" xmlns:xlink="http://www.w3.org/1999/xlink">
<g><path style="opacity:1" fill="#0d1a25" d="M 414.5,111.5 C 412.896,112.287 412.229,113.62 412.5,115.5C 411.069,116.78 410.402,118.447 410.5,120.5C 408.121,128.357 405.288,136.024 402,143.5C 400.786,145.049 399.286,146.215 397.5,147C 367.167,147.333 336.833,147.667 306.5,148C 304.015,152.621 302.015,157.454 300.5,162.5C 299.069,163.78 298.402,165.447 298.5,167.5C 298.5,167.833 298.5,168.167 298.5,168.5C 297.069,169.78 296.402,171.447 296.5,173.5C 295.322,177.879 293.988,182.212 292.5,186.5C 288.991,189.239 287.657,192.906 288.5,197.5C 286.337,206.155 283.337,214.488 279.5,222.5C 268.788,228.52 258.121,234.52 247.5,240.5C 245.973,240.427 244.973,241.094 244.5,242.5C 219.56,256.975 194.56,271.475 169.5,286C 160.804,286.452 158.137,282.619 161.5,274.5C 162.674,273.486 163.34,272.153 163.5,270.5C 176.63,229.778 189.963,189.111 203.5,148.5C 203.918,147.778 204.584,147.278 205.5,147C 204.5,146.5 203.5,146 202.5,145.5C 163.706,146.83 125.039,146.83 86.5,145.5C 93.8074,128.221 101.641,111.221 110,94.5C 111.405,93.2695 112.571,91.9361 113.5,90.5C 115.785,88.8818 117.785,86.8818 119.5,84.5C 125.93,78.281 133.597,74.1144 142.5,72C 234.833,71.3333 327.167,71.3333 419.5,72C 422.984,73.9558 424.984,76.9558 425.5,81C 421.973,91.2197 418.306,101.386 414.5,111.5 Z"/></g>
<g><path style="opacity:1" fill="#07151b" d="M 166.5,72.5 C 241.503,72.1667 316.503,72.5 391.5,73.5C 377.821,74.8119 364.654,74.8119 352,73.5C 339.895,74.239 327.728,74.9057 315.5,75.5C 310.915,75.0849 306.415,74.4182 302,73.5C 290.5,74.0271 277.667,74.6937 263.5,75.5C 258.167,75.3333 252.833,75.1667 247.5,75C 247,74.5 246.5,74 246,73.5C 242.978,73.5591 239.478,74.2257 235.5,75.5C 228.393,74.7549 221.893,74.0882 216,73.5C 212.703,76.0914 209.369,76.0914 206,73.5C 193.146,74.4624 180.146,74.7957 167,74.5C 166.536,73.9056 166.369,73.2389 166.5,72.5 Z"/></g>
<g><path style="opacity:1" fill="#7f828a" d="M 119.5,84.5 C 117.785,86.8818 115.785,88.8818 113.5,90.5C 114.522,87.4777 116.522,85.4777 119.5,84.5 Z"/></g>
<g><path style="opacity:1" fill="#b4babd" d="M 414.5,111.5 C 414.34,113.153 413.674,114.486 412.5,115.5C 412.229,113.62 412.896,112.287 414.5,111.5 Z"/></g>
<g><path style="opacity:1" fill="#929ba3" d="M 412.5,115.5 C 412.598,117.553 411.931,119.22 410.5,120.5C 410.402,118.447 411.069,116.78 412.5,115.5 Z"/></g>
<g><path style="opacity:1" fill="#3d434c" d="M 86.5,145.5 C 125.039,146.83 163.706,146.83 202.5,145.5C 203.5,146 204.5,146.5 205.5,147C 204.584,147.278 203.918,147.778 203.5,148.5C 164.234,147.839 124.9,147.172 85.5,146.5C 85.6236,145.893 85.9569,145.56 86.5,145.5 Z"/></g>
<g><path style="opacity:1" fill="#939699" d="M 300.5,162.5 C 300.598,164.553 299.931,166.22 298.5,167.5C 298.402,165.447 299.069,163.78 300.5,162.5 Z"/></g>
<g><path style="opacity:1" fill="#a2a3a9" d="M 298.5,168.5 C 298.598,170.553 297.931,172.22 296.5,173.5C 296.402,171.447 297.069,169.78 298.5,168.5 Z"/></g>
<g><path style="opacity:1" fill="#50555e" d="M 292.5,186.5 C 291.395,190.352 290.062,194.018 288.5,197.5C 287.657,192.906 288.991,189.239 292.5,186.5 Z"/></g>
<g><path style="opacity:1" fill="#5aa270" d="M 359.5,257.5 C 359.229,252.268 360.729,247.602 364,243.5C 364.176,240.118 364.676,236.785 365.5,233.5C 368.532,227.611 371.199,221.444 373.5,215C 373.355,214.228 373.022,213.561 372.5,213C 371.167,212.833 369.833,212.667 368.5,212.5C 365.161,213.512 361.828,214.512 358.5,215.5C 362.641,212.432 367.308,210.099 372.5,208.5C 374.497,208.986 375.831,210.153 376.5,212C 370.74,227.262 365.074,242.429 359.5,257.5 Z"/></g>
<g><path style="opacity:1" fill="#278f4a" d="M 359.5,257.5 C 354.948,271.408 349.948,285.075 344.5,298.5C 343.883,298.389 343.383,298.056 343,297.5C 341.846,301.454 341.013,305.454 340.5,309.5C 337.349,317.765 334.349,326.098 331.5,334.5C 330.504,334.414 329.671,334.748 329,335.5C 328.174,338.793 327.674,342.126 327.5,345.5C 323.738,356.007 319.738,366.341 315.5,376.5C 314.5,376.5 313.5,376.5 312.5,376.5C 312.813,379.247 312.48,381.914 311.5,384.5C 308.644,387.161 306.311,390.161 304.5,393.5C 279.85,394.43 255.184,394.763 230.5,394.5C 230.089,390.537 230.922,386.87 233,383.5C 233.321,389.291 234.154,389.624 235.5,384.5C 235.471,382.971 234.804,381.804 233.5,381C 234.451,377.943 234.784,374.777 234.5,371.5C 235.9,364.546 237.9,357.879 240.5,351.5C 242.057,348.707 243.891,346.04 246,343.5C 246.87,337.419 248.037,331.419 249.5,325.5C 249.92,320.471 251.254,315.805 253.5,311.5C 254.496,311.586 255.329,311.252 256,310.5C 256.36,306.747 257.694,303.414 260,300.5C 260.1,297.563 260.933,294.896 262.5,292.5C 262.069,291.707 261.735,290.873 261.5,290C 264.781,285.377 266.114,280.21 265.5,274.5C 266.724,267.941 268.724,261.607 271.5,255.5C 275.631,252.101 280.298,249.768 285.5,248.5C 290.52,248.324 294.854,246.491 298.5,243C 301.218,242.347 303.884,241.513 306.5,240.5C 307.772,240.57 308.938,240.903 310,241.5C 310.249,240.376 310.749,239.376 311.5,238.5C 314.154,237.032 316.487,235.365 318.5,233.5C 323.776,231.689 329.11,230.189 334.5,229C 337.397,227.622 340.064,225.956 342.5,224C 344.134,223.506 345.801,223.34 347.5,223.5C 347.5,222.5 347.5,221.5 347.5,220.5C 349.38,220.771 350.713,220.104 351.5,218.5C 353.426,216.707 355.759,215.707 358.5,215.5C 361.828,214.512 365.161,213.512 368.5,212.5C 369.833,212.667 371.167,212.833 372.5,213C 373.022,213.561 373.355,214.228 373.5,215C 371.199,221.444 368.532,227.611 365.5,233.5C 364.676,236.785 364.176,240.118 364,243.5C 360.729,247.602 359.229,252.268 359.5,257.5 Z"/></g>
<g><path style="opacity:1" fill="#4c9965" d="M 351.5,218.5 C 350.713,220.104 349.38,220.771 347.5,220.5C 347.5,221.5 347.5,222.5 347.5,223.5C 345.801,223.34 344.134,223.506 342.5,224C 340.064,225.956 337.397,227.622 334.5,229C 329.11,230.189 323.776,231.689 318.5,233.5C 329.074,227.715 340.074,222.715 351.5,218.5 Z"/></g>
<g><path style="opacity:1" fill="#c9cacd" d="M 247.5,240.5 C 247.027,241.906 246.027,242.573 244.5,242.5C 244.973,241.094 245.973,240.427 247.5,240.5 Z"/></g>
<g><path style="opacity:1" fill="#529e6d" d="M 318.5,233.5 C 316.487,235.365 314.154,237.032 311.5,238.5C 310.749,239.376 310.249,240.376 310,241.5C 308.938,240.903 307.772,240.57 306.5,240.5C 303.884,241.513 301.218,242.347 298.5,243C 294.854,246.491 290.52,248.324 285.5,248.5C 296.013,242.749 307.013,237.749 318.5,233.5 Z"/></g>
<g><path style="opacity:1" fill="#a7b2b7" d="M 163.5,270.5 C 163.34,272.153 162.674,273.486 161.5,274.5C 161.229,272.62 161.896,271.287 163.5,270.5 Z"/></g>
<g><path style="opacity:1" fill="#101c27" d="M 231.5,296.5 C 229.926,298.102 229.259,300.102 229.5,302.5C 219.998,332.169 210.498,361.836 201,391.5C 200.226,393.939 198.726,395.773 196.5,397C 172.833,397.667 149.167,397.667 125.5,397C 123.675,395.534 123.175,393.701 124,391.5C 128.814,378.221 133.314,364.888 137.5,351.5C 139.213,350.365 139.88,348.698 139.5,346.5C 141.368,338.563 144.035,330.896 147.5,323.5C 156.59,317.744 165.923,312.41 175.5,307.5C 177.027,307.573 178.027,306.906 178.5,305.5C 179.605,304.4 180.938,303.733 182.5,303.5C 184.027,303.573 185.027,302.906 185.5,301.5C 201.267,291.587 217.434,282.253 234,273.5C 236.058,274.058 237.225,275.391 237.5,277.5C 236.25,284.199 234.25,290.532 231.5,296.5 Z"/></g>
<g><path style="opacity:1" fill="#4a9964" d="M 265.5,274.5 C 266.114,280.21 264.781,285.377 261.5,290C 261.735,290.873 262.069,291.707 262.5,292.5C 260.933,294.896 260.1,297.563 260,300.5C 257.694,303.414 256.36,306.747 256,310.5C 255.329,311.252 254.496,311.586 253.5,311.5C 257.124,298.963 261.124,286.629 265.5,274.5 Z"/></g>
<g><path style="opacity:1" fill="#9a9fa6" d="M 231.5,296.5 C 231.405,298.786 230.738,300.786 229.5,302.5C 229.259,300.102 229.926,298.102 231.5,296.5 Z"/></g>
<g><path style="opacity:1" fill="#8f9393" d="M 185.5,301.5 C 185.027,302.906 184.027,303.573 182.5,303.5C 182.973,302.094 183.973,301.427 185.5,301.5 Z"/></g>
<g><path style="opacity:1" fill="#66a981" d="M 344.5,298.5 C 343.918,302.532 342.584,306.199 340.5,309.5C 341.013,305.454 341.846,301.454 343,297.5C 343.383,298.056 343.883,298.389 344.5,298.5 Z"/></g>
<g><path style="opacity:1" fill="#909597" d="M 178.5,305.5 C 178.027,306.906 177.027,307.573 175.5,307.5C 175.973,306.094 176.973,305.427 178.5,305.5 Z"/></g>
<g><path style="opacity:1" fill="#79b089" d="M 331.5,334.5 C 330.395,338.352 329.062,342.018 327.5,345.5C 327.674,342.126 328.174,338.793 329,335.5C 329.671,334.748 330.504,334.414 331.5,334.5 Z"/></g>
<g><path style="opacity:1" fill="#5ba171" d="M 249.5,325.5 C 248.037,331.419 246.87,337.419 246,343.5C 243.891,346.04 242.057,348.707 240.5,351.5C 242.632,342.428 245.632,333.762 249.5,325.5 Z"/></g>
<g><path style="opacity:1" fill="#8e8f96" d="M 139.5,346.5 C 139.88,348.698 139.213,350.365 137.5,351.5C 137.796,349.597 138.463,347.93 139.5,346.5 Z"/></g>
<g><path style="opacity:1" fill="#5b9f70" d="M 315.5,376.5 C 314.607,384.042 310.94,389.709 304.5,393.5C 306.311,390.161 308.644,387.161 311.5,384.5C 312.48,381.914 312.813,379.247 312.5,376.5C 313.5,376.5 314.5,376.5 315.5,376.5 Z"/></g>
<g><path style="opacity:1" fill="#539d6a" d="M 234.5,371.5 C 234.784,374.777 234.451,377.943 233.5,381C 234.804,381.804 235.471,382.971 235.5,384.5C 234.154,389.624 233.321,389.291 233,383.5C 230.922,386.87 230.089,390.537 230.5,394.5C 255.184,394.763 279.85,394.43 304.5,393.5C 302.615,395.311 300.281,396.478 297.5,397C 274.833,397.667 252.167,397.667 229.5,397C 227.968,396.3 226.968,395.134 226.5,393.5C 228.878,385.94 231.544,378.606 234.5,371.5 Z"/></g>
</svg>
